<svg xmlns="http://www.w3.org/2000/svg" width="1600" height="2000" viewBox="0 0 1600 2000"><defs>
  <radialGradient id="bgglow1" cx="0.2" cy="0.1" r="0.7">
    <stop offset="0" stop-color="#0e2a4d" stop-opacity="0.9"/>
    <stop offset="1" stop-color="#05080f" stop-opacity="0"/>
  </radialGradient>
  <radialGradient id="bgglow2" cx="0.85" cy="0.85" r="0.7">
    <stop offset="0" stop-color="#2a124d" stop-opacity="0.85"/>
    <stop offset="1" stop-color="#05080f" stop-opacity="0"/>
  </radialGradient>
  <pattern id="grid" width="48" height="48" patternUnits="userSpaceOnUse">
    <path d="M48 0H0V48" fill="none" stroke="#1de0ff" stroke-opacity="0.05" stroke-width="1"/>
  </pattern>
  <filter id="softblur" x="-50%" y="-50%" width="200%" height="200%">
    <feGaussianBlur stdDeviation="5"/>
  </filter>
  <filter id="cardshadow" x="-30%" y="-30%" width="160%" height="160%">
    <feDropShadow dx="0" dy="10" stdDeviation="14" flood-color="#000000" flood-opacity="0.55"/>
  </filter>
  
  <filter id="glow-cyan" x="-60%" y="-60%" width="220%" height="220%">
    <feDropShadow dx="0" dy="0" stdDeviation="7" flood-color="#22d3ee" flood-opacity="0.85"/>
  </filter>
  <filter id="glowbig-cyan" x="-80%" y="-80%" width="260%" height="260%">
    <feDropShadow dx="0" dy="0" stdDeviation="16" flood-color="#22d3ee" flood-opacity="0.9"/>
  </filter>
  <filter id="glow-blue" x="-60%" y="-60%" width="220%" height="220%">
    <feDropShadow dx="0" dy="0" stdDeviation="7" flood-color="#3b82f6" flood-opacity="0.85"/>
  </filter>
  <filter id="glowbig-blue" x="-80%" y="-80%" width="260%" height="260%">
    <feDropShadow dx="0" dy="0" stdDeviation="16" flood-color="#3b82f6" flood-opacity="0.9"/>
  </filter>
  <filter id="glow-purp" x="-60%" y="-60%" width="220%" height="220%">
    <feDropShadow dx="0" dy="0" stdDeviation="7" flood-color="#b15cff" flood-opacity="0.85"/>
  </filter>
  <filter id="glowbig-purp" x="-80%" y="-80%" width="260%" height="260%">
    <feDropShadow dx="0" dy="0" stdDeviation="16" flood-color="#b15cff" flood-opacity="0.9"/>
  </filter>
  <filter id="glow-orng" x="-60%" y="-60%" width="220%" height="220%">
    <feDropShadow dx="0" dy="0" stdDeviation="7" flood-color="#ff9d3c" flood-opacity="0.85"/>
  </filter>
  <filter id="glowbig-orng" x="-80%" y="-80%" width="260%" height="260%">
    <feDropShadow dx="0" dy="0" stdDeviation="16" flood-color="#ff9d3c" flood-opacity="0.9"/>
  </filter>
  <filter id="glow-green" x="-60%" y="-60%" width="220%" height="220%">
    <feDropShadow dx="0" dy="0" stdDeviation="7" flood-color="#34d399" flood-opacity="0.85"/>
  </filter>
  <filter id="glowbig-green" x="-80%" y="-80%" width="260%" height="260%">
    <feDropShadow dx="0" dy="0" stdDeviation="16" flood-color="#34d399" flood-opacity="0.9"/>
  </filter>
  
  <linearGradient id="panel-cyan" x1="0" y1="0" x2="0" y2="1">
    <stop offset="0" stop-color="#22d3ee" stop-opacity="0.20"/>
    <stop offset="0.5" stop-color="#22d3ee" stop-opacity="0.06"/>
    <stop offset="1" stop-color="#0b1220" stop-opacity="0.55"/>
  </linearGradient>
  <linearGradient id="panel-blue" x1="0" y1="0" x2="0" y2="1">
    <stop offset="0" stop-color="#3b82f6" stop-opacity="0.20"/>
    <stop offset="0.5" stop-color="#3b82f6" stop-opacity="0.06"/>
    <stop offset="1" stop-color="#0b1220" stop-opacity="0.55"/>
  </linearGradient>
  <linearGradient id="panel-purp" x1="0" y1="0" x2="0" y2="1">
    <stop offset="0" stop-color="#b15cff" stop-opacity="0.20"/>
    <stop offset="0.5" stop-color="#b15cff" stop-opacity="0.06"/>
    <stop offset="1" stop-color="#0b1220" stop-opacity="0.55"/>
  </linearGradient>
  <linearGradient id="panel-orng" x1="0" y1="0" x2="0" y2="1">
    <stop offset="0" stop-color="#ff9d3c" stop-opacity="0.20"/>
    <stop offset="0.5" stop-color="#ff9d3c" stop-opacity="0.06"/>
    <stop offset="1" stop-color="#0b1220" stop-opacity="0.55"/>
  </linearGradient>
  <linearGradient id="panel-green" x1="0" y1="0" x2="0" y2="1">
    <stop offset="0" stop-color="#34d399" stop-opacity="0.20"/>
    <stop offset="0.5" stop-color="#34d399" stop-opacity="0.06"/>
    <stop offset="1" stop-color="#0b1220" stop-opacity="0.55"/>
  </linearGradient>
  <linearGradient id="title" x1="0" y1="0" x2="1" y2="0">
    <stop offset="0" stop-color="#22d3ee"/>
    <stop offset="0.5" stop-color="#7dd3fc"/>
    <stop offset="1" stop-color="#b15cff"/>
  </linearGradient>
</defs><rect width="1600" height="2000" fill="#05080f"/><rect width="1600" height="2000" fill="url(#grid)"/><rect width="1600" height="2000" fill="url(#bgglow1)"/><rect width="1600" height="2000" fill="url(#bgglow2)"/><text x="800" y="92" font-family="'Inter','Helvetica Neue',Arial,sans-serif" font-size="46" font-weight="800" fill="url(#title)" text-anchor="middle" letter-spacing="2" opacity="1">ENTERPRISE AI PILOT RESCUE KIT</text><text x="800" y="132" font-family="'Inter','Helvetica Neue',Arial,sans-serif" font-size="22" font-weight="600" fill="#90a0c4" text-anchor="middle" letter-spacing="8" opacity="1">SYSTEM ARCHITECTURE</text><rect x="650" y="152" width="300" height="3" rx="1.5" fill="#22d3ee" filter="url(#glow-cyan)"/><path d="M800.0 288 L800.0 332" stroke="#22d3ee" stroke-opacity="0.30" stroke-width="8.32" fill="none" filter="url(#softblur)" stroke-linecap="round"/><path d="M800.0 288 L800.0 332" stroke="#22d3ee" stroke-opacity="0.95" stroke-width="2.6" fill="none" stroke-linecap="round"/><circle cx="800.0" cy="332" r="5" fill="#22d3ee" filter="url(#glow-cyan)"/><text x="950" y="320" font-family="'SFMono-Regular','Menlo',monospace" font-size="17" font-weight="600" fill="#22d3ee" text-anchor="middle" opacity="1">HTTP :3000</text><path d="M800.0 436 L800.0 480" stroke="#22d3ee" stroke-opacity="0.30" stroke-width="8.32" fill="none" filter="url(#softblur)" stroke-linecap="round"/><path d="M800.0 436 L800.0 480" stroke="#22d3ee" stroke-opacity="0.95" stroke-width="2.6" fill="none" stroke-linecap="round"/><circle cx="800.0" cy="480" r="5" fill="#22d3ee" filter="url(#glow-cyan)"/><text x="970" y="470" font-family="'SFMono-Regular','Menlo',monospace" font-size="17" font-weight="600" fill="#22d3ee" text-anchor="middle" opacity="1">fetch JSON</text><path d="M800.0 596 L800.0 656" stroke="#3b82f6" stroke-opacity="0.30" stroke-width="8.32" fill="none" filter="url(#softblur)" stroke-linecap="round"/><path d="M800.0 596 L800.0 656" stroke="#3b82f6" stroke-opacity="0.95" stroke-width="2.6" fill="none" stroke-linecap="round"/><circle cx="800.0" cy="656" r="5" fill="#3b82f6" filter="url(#glow-blue)"/><path d="M600 722.0 L456 722.0" stroke="#3b82f6" stroke-opacity="0.30" stroke-width="8.32" fill="none" filter="url(#softblur)" stroke-linecap="round"/><path d="M600 722.0 L456 722.0" stroke="#3b82f6" stroke-opacity="0.95" stroke-width="2.6" fill="none" stroke-linecap="round"/><circle cx="456" cy="722.0" r="5" fill="#3b82f6" filter="url(#glow-blue)"/><text x="520" y="632" font-family="'SFMono-Regular','Menlo',monospace" font-size="17" font-weight="600" fill="#3b82f6" text-anchor="middle" opacity="1">embed → top-k</text><path d="M1000 722.0 L1144 723.0" stroke="#ff9d3c" stroke-opacity="0.30" stroke-width="10.240000000000002" fill="none" filter="url(#softblur)" stroke-linecap="round"/><path d="M1000 722.0 L1144 723.0" stroke="#ff9d3c" stroke-opacity="0.95" stroke-width="3.2" fill="none" stroke-linecap="round"/><circle cx="1144" cy="723.0" r="5" fill="#ff9d3c" filter="url(#glow-orng)"/><text x="1050" y="636" font-family="'SFMono-Regular','Menlo',monospace" font-size="17" font-weight="600" fill="#ff9d3c" text-anchor="middle" opacity="1">Converse API · real in BOTH modes</text><path d="M800.0 788 L800.0 856" stroke="#b15cff" stroke-opacity="0.30" stroke-width="8.32" fill="none" filter="url(#softblur)" stroke-linecap="round"/><path d="M800.0 788 L800.0 856" stroke="#b15cff" stroke-opacity="0.95" stroke-width="2.6" fill="none" stroke-linecap="round"/><circle cx="800.0" cy="856" r="5" fill="#b15cff" filter="url(#glow-purp)"/><path d="M680.0 986 L450.0 1056" stroke="#22d3ee" stroke-opacity="0.30" stroke-width="8.32" fill="none" filter="url(#softblur)" stroke-linecap="round"/><path d="M680.0 986 L450.0 1056" stroke="#22d3ee" stroke-opacity="0.95" stroke-width="2.6" fill="none" stroke-linecap="round" stroke-dasharray="2 12"/><circle cx="450.0" cy="1056" r="5" fill="#22d3ee" filter="url(#glow-cyan)"/><text x="450.0" y="1040" font-family="'SFMono-Regular','Menlo',monospace" font-size="17" font-weight="600" fill="#22d3ee" text-anchor="middle" opacity="1">USE_REAL_ATLAS = false</text><path d="M920.0 986 L1150.0 1056" stroke="#34d399" stroke-opacity="0.30" stroke-width="10.240000000000002" fill="none" filter="url(#softblur)" stroke-linecap="round"/><path d="M920.0 986 L1150.0 1056" stroke="#34d399" stroke-opacity="0.95" stroke-width="3.2" fill="none" stroke-linecap="round"/><circle cx="1150.0" cy="1056" r="5" fill="#34d399" filter="url(#glow-green)"/><text x="1150.0" y="1040" font-family="'SFMono-Regular','Menlo',monospace" font-size="17" font-weight="600" fill="#34d399" text-anchor="middle" opacity="1">USE_REAL_ATLAS = true</text><g><text x="120" y="188" font-family="'Inter','Helvetica Neue',Arial,sans-serif" font-size="16" font-weight="700" fill="#22d3ee" text-anchor="start" letter-spacing="4" opacity="1">CLIENT</text><circle cx="106" cy="183" r="4" fill="#22d3ee" filter="url(#glow-cyan)"/></g><g><text x="120" y="628" font-family="'Inter','Helvetica Neue',Arial,sans-serif" font-size="16" font-weight="700" fill="#3b82f6" text-anchor="start" letter-spacing="4" opacity="1">APPLICATION  ·  node index.js</text><circle cx="106" cy="623" r="4" fill="#3b82f6" filter="url(#glow-blue)"/></g><g><text x="120" y="1018" font-family="'Inter','Helvetica Neue',Arial,sans-serif" font-size="16" font-weight="700" fill="#b15cff" text-anchor="start" letter-spacing="4" opacity="1">DATA LAYER</text><circle cx="106" cy="1013" r="4" fill="#b15cff" filter="url(#glow-purp)"/></g><g opacity="1.0"><rect x="620" y="196" width="360" height="92" rx="22" fill="#0a0f1c" filter="url(#cardshadow)"/><rect x="620" y="196" width="360" height="92" rx="22" fill="url(#panel-cyan)" stroke="#22d3ee" stroke-opacity="0.9" stroke-width="1.6" filter="url(#glow-cyan)"/><rect x="634" y="204" width="332" height="2" rx="1" fill="#ffffff" opacity="0.18"/><g stroke="#22d3ee" stroke-width="2.4" fill="none" filter="url(#glow-cyan)"><circle cx="800.0" cy="230" r="9"/><path d="M784.0 254 q16 -22 32 0" stroke-linecap="round"/></g><text x="800.0" y="282" font-family="'Inter','Helvetica Neue',Arial,sans-serif" font-size="24" font-weight="700" fill="#eaf2ff" text-anchor="middle" opacity="1">User</text><text x="800.0" y="314" font-family="'Inter','Helvetica Neue',Arial,sans-serif" font-size="16" font-weight="500" fill="#90a0c4" text-anchor="middle" opacity="1">browser</text></g><g opacity="1.0"><rect x="500" y="332" width="600" height="104" rx="22" fill="#0a0f1c" filter="url(#cardshadow)"/><rect x="500" y="332" width="600" height="104" rx="22" fill="url(#panel-cyan)" stroke="#22d3ee" stroke-opacity="0.9" stroke-width="1.6" filter="url(#glow-cyan)"/><rect x="514" y="340" width="572" height="2" rx="1" fill="#ffffff" opacity="0.18"/><g stroke="#22d3ee" stroke-width="2.6" fill="none" stroke-linecap="round" stroke-linejoin="round" filter="url(#glow-cyan)"><path d="M784.0 363 L774.0 372 L784.0 381"/><path d="M816.0 363 L826.0 372 L816.0 381"/><path d="M804.0 360 L796.0 384"/></g><text x="800.0" y="418" font-family="'Inter','Helvetica Neue',Arial,sans-serif" font-size="25" font-weight="700" fill="#eaf2ff" text-anchor="middle" opacity="1">Frontend</text><text x="800.0" y="451" font-family="'Inter','Helvetica Neue',Arial,sans-serif" font-size="16" font-weight="500" fill="#90a0c4" text-anchor="middle" opacity="1">public/index.html  ·  single HTML, no build</text></g><g opacity="1.0"><rect x="480" y="480" width="640" height="116" rx="22" fill="#0a0f1c" filter="url(#cardshadow)"/><rect x="480" y="480" width="640" height="116" rx="22" fill="url(#panel-blue)" stroke="#3b82f6" stroke-opacity="0.9" stroke-width="1.6" filter="url(#glow-blue)"/><rect x="494" y="488" width="612" height="2" rx="1" fill="#ffffff" opacity="0.18"/><g stroke="#3b82f6" stroke-width="2.4" fill="none" filter="url(#glow-blue)"><rect x="780.0" y="508" width="40" height="24" rx="6"/><circle cx="791.0" cy="520" r="2.6" fill="#3b82f6"/><circle cx="800.0" cy="520" r="2.6" fill="#3b82f6"/><circle cx="809.0" cy="520" r="2.6" fill="#3b82f6"/></g><text x="800.0" y="566" font-family="'Inter','Helvetica Neue',Arial,sans-serif" font-size="25" font-weight="700" fill="#eaf2ff" text-anchor="middle" opacity="1">Express API</text><text x="800.0" y="599" font-family="'Inter','Helvetica Neue',Arial,sans-serif" font-size="16" font-weight="500" fill="#90a0c4" text-anchor="middle" opacity="1">POST /api/diagnose   GET /history · /health</text></g><g opacity="1.0"><rect x="96" y="656" width="360" height="132" rx="22" fill="#0a0f1c" filter="url(#cardshadow)"/><rect x="96" y="656" width="360" height="132" rx="22" fill="url(#panel-blue)" stroke="#3b82f6" stroke-opacity="0.9" stroke-width="1.6" filter="url(#glow-blue)"/><rect x="110" y="664" width="332" height="2" rx="1" fill="#ffffff" opacity="0.18"/><g stroke="#3b82f6" stroke-width="2.4" fill="none" stroke-linecap="round" filter="url(#glow-blue)"><circle cx="272.0" cy="692" r="11"/><path d="M281.0 701 L292.0 712"/></g><text x="276.0" y="742" font-family="'Inter','Helvetica Neue',Arial,sans-serif" font-size="19" font-weight="700" fill="#eaf2ff" text-anchor="middle" opacity="1">Retriever + Embeddings</text><text x="276.0" y="769" font-family="'Inter','Helvetica Neue',Arial,sans-serif" font-size="15" font-weight="500" fill="#90a0c4" text-anchor="middle" opacity="1">services/retriever.js</text><text x="276.0" y="792" font-family="'Inter','Helvetica Neue',Arial,sans-serif" font-size="15" font-weight="500" fill="#90a0c4" text-anchor="middle" opacity="1">utils/embeddings.js</text></g><g opacity="1.0"><rect x="600" y="656" width="400" height="132" rx="22" fill="#0a0f1c" filter="url(#cardshadow)"/><rect x="600" y="656" width="400" height="132" rx="22" fill="url(#panel-purp)" stroke="#b15cff" stroke-opacity="0.9" stroke-width="1.6" filter="url(#glow-purp)"/><rect x="614" y="664" width="372" height="2" rx="1" fill="#ffffff" opacity="0.18"/><g stroke="#b15cff" stroke-width="2.4" fill="#05080f" filter="url(#glow-purp)"><circle cx="782.0" cy="696" r="6"/><circle cx="818.0" cy="684" r="6"/><circle cx="818.0" cy="708" r="6"/><path d="M788.0 696 L812.0 684 M788.0 696 L812.0 708" fill="none"/></g><text x="800.0" y="742" font-family="'Inter','Helvetica Neue',Arial,sans-serif" font-size="19" font-weight="700" fill="#eaf2ff" text-anchor="middle" opacity="1">Diagnosis Orchestrator</text><text x="800.0" y="769" font-family="'Inter','Helvetica Neue',Arial,sans-serif" font-size="15" font-weight="500" fill="#90a0c4" text-anchor="middle" opacity="1">services/diagnosis.js</text></g><g opacity="1.0"><rect x="1144" y="648" width="372" height="150" rx="22" fill="#0a0f1c" filter="url(#cardshadow)"/><rect x="1144" y="648" width="372" height="150" rx="22" fill="url(#panel-orng)" stroke="#ff9d3c" stroke-opacity="0.9" stroke-width="2.4" filter="url(#glowbig-orng)"/><rect x="1158" y="656" width="344" height="2" rx="1" fill="#ffffff" opacity="0.18"/><g stroke="#ff9d3c" stroke-width="2.4" fill="none" filter="url(#glow-orng)"><rect x="1314.0" y="672" width="32" height="32" rx="5"/><rect x="1323.0" y="681" width="14" height="14" rx="2"/><path d="M1321.0 666 V672 M1321.0 704 V710 M1308.0 679 H1314.0 M1346.0 679 H1352.0"/><path d="M1330.0 666 V672 M1330.0 704 V710 M1308.0 688 H1314.0 M1346.0 688 H1352.0"/><path d="M1339.0 666 V672 M1339.0 704 V710 M1308.0 697 H1314.0 M1346.0 697 H1352.0"/></g><text x="1330.0" y="734" font-family="'Inter','Helvetica Neue',Arial,sans-serif" font-size="21" font-weight="800" fill="#eaf2ff" text-anchor="middle" opacity="1">Amazon Bedrock</text><text x="1330.0" y="763" font-family="'Inter','Helvetica Neue',Arial,sans-serif" font-size="18" font-weight="700" fill="#ff9d3c" text-anchor="middle" opacity="1">Nova Pro</text><text x="1330.0" y="789" font-family="'Inter','Helvetica Neue',Arial,sans-serif" font-size="14" font-weight="500" fill="#90a0c4" text-anchor="middle" opacity="1">apac.amazon.nova-pro-v1:0</text></g><g opacity="1.0"><rect x="500" y="856" width="600" height="130" rx="22" fill="#0a0f1c" filter="url(#cardshadow)"/><rect x="500" y="856" width="600" height="130" rx="22" fill="url(#panel-purp)" stroke="#b15cff" stroke-opacity="0.9" stroke-width="2.4" filter="url(#glowbig-purp)"/><rect x="514" y="864" width="572" height="2" rx="1" fill="#ffffff" opacity="0.18"/><g stroke="#b15cff" stroke-width="2.6" fill="none" stroke-linecap="round" stroke-linejoin="round" filter="url(#glow-purp)"><path d="M778.0 888 H814.0 M814.0 888 l-9 -8 M814.0 888 l-9 8"/><path d="M822.0 904 H786.0 M786.0 904 l9 -8 M786.0 904 l9 8"/></g><text x="800.0" y="942" font-family="'Inter','Helvetica Neue',Arial,sans-serif" font-size="24" font-weight="800" fill="#eaf2ff" text-anchor="middle" opacity="1">store.js   —   SWAP POINT</text><text x="800.0" y="974" font-family="'Inter','Helvetica Neue',Arial,sans-serif" font-size="16" font-weight="500" fill="#90a0c4" text-anchor="middle" opacity="1">one interface · one flag</text></g><g opacity="0.55"><rect x="150" y="1056" width="600" height="360" rx="24" fill="#0a0f1c" filter="url(#cardshadow)"/><rect x="150" y="1056" width="600" height="360" rx="24" fill="url(#panel-cyan)" stroke="#22d3ee" stroke-opacity="0.9" stroke-width="1.6" filter="url(#glow-cyan)"/><rect x="164" y="1064" width="572" height="2" rx="1" fill="#ffffff" opacity="0.18"/></g><text x="450.0" y="1102" font-family="'Inter','Helvetica Neue',Arial,sans-serif" font-size="26" font-weight="800" fill="#22d3ee" text-anchor="middle" letter-spacing="3" opacity="1">MOCK</text><text x="450.0" y="1128" font-family="'SFMono-Regular','Menlo',monospace" font-size="15" font-weight="600" fill="#90a0c4" text-anchor="middle" opacity="1">USE_REAL_ATLAS = false</text><g stroke="#22d3ee" stroke-width="2.2" fill="none" stroke-linejoin="round" filter="url(#glow-cyan)"><path d="M450.0 1160 l20 11 l-20 11 l-20 -11 z"/><path d="M430.0 1178 l20 11 l20 -11"/></g><rect x="190" y="1226" width="520" height="44" rx="10" fill="#0c1424" stroke="#22d3ee" stroke-opacity="0.5" stroke-width="1.2"/><text x="450.0" y="1254" font-family="'Inter','Helvetica Neue',Arial,sans-serif" font-size="16" font-weight="600" fill="#eaf2ff" text-anchor="middle" opacity="1">mockStore.js  ·  in-memory</text><rect x="190" y="1282" width="520" height="44" rx="10" fill="#0c1424" stroke="#3b82f6" stroke-opacity="0.5" stroke-width="1.2"/><text x="450.0" y="1310" font-family="'Inter','Helvetica Neue',Arial,sans-serif" font-size="16" font-weight="600" fill="#eaf2ff" text-anchor="middle" opacity="1">store.local.json  ·  file persistence</text><rect x="190" y="1338" width="520" height="44" rx="10" fill="#0c1424" stroke="#90a0c4" stroke-opacity="0.5" stroke-width="1.2"/><text x="450.0" y="1366" font-family="'Inter','Helvetica Neue',Arial,sans-serif" font-size="16" font-weight="600" fill="#eaf2ff" text-anchor="middle" opacity="1">JS cosine vector search</text><g opacity="1.0"><rect x="850" y="1056" width="600" height="360" rx="24" fill="#0a0f1c" filter="url(#cardshadow)"/><rect x="850" y="1056" width="600" height="360" rx="24" fill="url(#panel-green)" stroke="#34d399" stroke-opacity="0.9" stroke-width="1.6" filter="url(#glow-green)"/><rect x="864" y="1064" width="572" height="2" rx="1" fill="#ffffff" opacity="0.18"/></g><text x="1150.0" y="1102" font-family="'Inter','Helvetica Neue',Arial,sans-serif" font-size="24" font-weight="800" fill="#34d399" text-anchor="middle" letter-spacing="1" opacity="1">REAL  ·  MongoDB Atlas</text><text x="1150.0" y="1128" font-family="'SFMono-Regular','Menlo',monospace" font-size="15" font-weight="600" fill="#90a0c4" text-anchor="middle" opacity="1">USE_REAL_ATLAS = true</text><g stroke="#34d399" stroke-width="2.2" fill="none" filter="url(#glow-green)"><ellipse cx="1150.0" cy="1164" rx="18" ry="6"/><path d="M1132.0 1164 V1188 a18 6 0 0 0 36 0 V1164"/><path d="M1132.0 1176 a18 6 0 0 0 36 0"/></g><rect x="890" y="1226" width="520" height="44" rx="10" fill="#0c1424" stroke="#34d399" stroke-opacity="0.5" stroke-width="1.2"/><text x="1150.0" y="1254" font-family="'Inter','Helvetica Neue',Arial,sans-serif" font-size="16" font-weight="600" fill="#eaf2ff" text-anchor="middle" opacity="1">pilotrescue database</text><rect x="890" y="1282" width="520" height="44" rx="10" fill="#0c1424" stroke="#22d3ee" stroke-opacity="0.5" stroke-width="1.2"/><text x="1150.0" y="1310" font-family="'Inter','Helvetica Neue',Arial,sans-serif" font-size="16" font-weight="600" fill="#eaf2ff" text-anchor="middle" opacity="1">Atlas Vector Search  ·  $vectorSearch</text><rect x="890" y="1338" width="520" height="44" rx="10" fill="#0c1424" stroke="#90a0c4" stroke-opacity="0.5" stroke-width="1.2"/><text x="1150.0" y="1366" font-family="'Inter','Helvetica Neue',Arial,sans-serif" font-size="16" font-weight="600" fill="#eaf2ff" text-anchor="middle" opacity="1">failurePatterns_vec index</text><text x="800" y="1470" font-family="'Inter','Helvetica Neue',Arial,sans-serif" font-size="15" font-weight="600" fill="#90a0c4" text-anchor="middle" letter-spacing="3" opacity="1">COLLECTIONS  (identical shape in both stores)</text><rect x="164.0" y="1490" width="300" height="54" rx="12" fill="url(#panel-cyan)" stroke="#22d3ee" stroke-opacity="0.8" stroke-width="1.4" filter="url(#glow-cyan)"/><text x="314.0" y="1523" font-family="'SFMono-Regular','Menlo',monospace" font-size="18" font-weight="700" fill="#eaf2ff" text-anchor="middle" opacity="1">pilotProfiles</text><rect x="488.0" y="1490" width="300" height="54" rx="12" fill="url(#panel-purp)" stroke="#b15cff" stroke-opacity="0.8" stroke-width="1.4" filter="url(#glow-purp)"/><text x="638.0" y="1523" font-family="'SFMono-Regular','Menlo',monospace" font-size="18" font-weight="700" fill="#eaf2ff" text-anchor="middle" opacity="1">failurePatterns</text><rect x="812.0" y="1490" width="300" height="54" rx="12" fill="url(#panel-blue)" stroke="#3b82f6" stroke-opacity="0.8" stroke-width="1.4" filter="url(#glow-blue)"/><text x="962.0" y="1523" font-family="'SFMono-Regular','Menlo',monospace" font-size="18" font-weight="700" fill="#eaf2ff" text-anchor="middle" opacity="1">recommendations</text><rect x="1136.0" y="1490" width="300" height="54" rx="12" fill="url(#panel-green)" stroke="#34d399" stroke-opacity="0.8" stroke-width="1.4" filter="url(#glow-green)"/><text x="1286.0" y="1523" font-family="'SFMono-Regular','Menlo',monospace" font-size="18" font-weight="700" fill="#eaf2ff" text-anchor="middle" opacity="1">rescueLogs</text><rect x="50.0" y="1640" width="360" height="58" rx="29" fill="#0a1120" stroke="#22d3ee" stroke-opacity="0.7" stroke-width="1.4" filter="url(#glow-cyan)"/><text x="230.0" y="1676" font-family="'Inter','Helvetica Neue',Arial,sans-serif" font-size="17" font-weight="600" fill="#eaf2ff" text-anchor="middle" opacity="1">⚡  node index.js</text><rect x="430.0" y="1640" width="360" height="58" rx="29" fill="#0a1120" stroke="#ff9d3c" stroke-opacity="0.7" stroke-width="1.4" filter="url(#glow-orng)"/><text x="610.0" y="1676" font-family="'Inter','Helvetica Neue',Arial,sans-serif" font-size="17" font-weight="600" fill="#eaf2ff" text-anchor="middle" opacity="1">◎  Bedrock Nova Pro · ~$0.002 / call</text><rect x="810.0" y="1640" width="360" height="58" rx="29" fill="#0a1120" stroke="#b15cff" stroke-opacity="0.7" stroke-width="1.4" filter="url(#glow-purp)"/><text x="990.0" y="1676" font-family="'Inter','Helvetica Neue',Arial,sans-serif" font-size="17" font-weight="600" fill="#eaf2ff" text-anchor="middle" opacity="1">⇄  one-line mock ↔ Atlas swap</text><rect x="1190.0" y="1640" width="360" height="58" rx="29" fill="#0a1120" stroke="#34d399" stroke-opacity="0.7" stroke-width="1.4" filter="url(#glow-green)"/><text x="1370.0" y="1676" font-family="'Inter','Helvetica Neue',Arial,sans-serif" font-size="17" font-weight="600" fill="#eaf2ff" text-anchor="middle" opacity="1">◈  region ap-south-1</text><text x="150" y="1754" font-family="'Inter','Helvetica Neue',Arial,sans-serif" font-size="15" font-weight="700" fill="#90a0c4" text-anchor="start" letter-spacing="4" opacity="1">LEGEND</text><path d="M150 1784 h54" stroke="#22d3ee" stroke-width="3" stroke-linecap="round" filter="url(#glow-cyan)"/><text x="218" y="1789" font-family="'Inter','Helvetica Neue',Arial,sans-serif" font-size="16" font-weight="500" fill="#90a0c4" text-anchor="start" opacity="1">request / data flow</text><path d="M480 1784 h54" stroke="#22d3ee" stroke-width="3" stroke-linecap="round" filter="url(#glow-cyan)" stroke-dasharray="2 8"/><text x="548" y="1789" font-family="'Inter','Helvetica Neue',Arial,sans-serif" font-size="16" font-weight="500" fill="#90a0c4" text-anchor="start" opacity="1">mock path</text><path d="M810 1784 h54" stroke="#34d399" stroke-width="3" stroke-linecap="round" filter="url(#glow-green)"/><text x="878" y="1789" font-family="'Inter','Helvetica Neue',Arial,sans-serif" font-size="16" font-weight="500" fill="#90a0c4" text-anchor="start" opacity="1">real Atlas path</text><path d="M1140 1784 h54" stroke="#ff9d3c" stroke-width="3" stroke-linecap="round" filter="url(#glow-orng)"/><text x="1208" y="1789" font-family="'Inter','Helvetica Neue',Arial,sans-serif" font-size="16" font-weight="500" fill="#90a0c4" text-anchor="start" opacity="1">Bedrock (both modes)</text><text x="800" y="1920" font-family="'SFMono-Regular','Menlo',monospace" font-size="18" font-weight="600" fill="#22d3ee" text-anchor="middle" opacity="1">github.com/bhuvana-s/pilot-2-rescue</text></svg>